<svg viewBox="0 0 64 64" fill="none" xmlns="http://www.w3.org/2000/svg">
  <!-- Basket handle -->
  <path d="M20 18C20 18 20 10 32 10C44 10 44 18 44 18" stroke="#166534" stroke-width="3" stroke-linecap="round" fill="none"/>
  
  <!-- Basket body -->
  <path d="M12 24L16 52C16 54 18 56 20 56H44C46 56 48 54 48 52L52 24H12Z" fill="#166534" opacity="0.9"/>
  
  <!-- Basket top rim -->
  <rect x="10" y="22" width="44" height="4" rx="1" fill="#166534"/>
  
  <!-- Basket weave lines -->
  <line x1="20" y1="28" x2="18" y2="52" stroke="white" stroke-width="1.5" opacity="0.3"/>
  <line x1="28" y1="28" x2="26" y2="52" stroke="white" stroke-width="1.5" opacity="0.3"/>
  <line x1="36" y1="28" x2="38" y2="52" stroke="white" stroke-width="1.5" opacity="0.3"/>
  <line x1="44" y1="28" x2="46" y2="52" stroke="white" stroke-width="1.5" opacity="0.3"/>
  
  <!-- Vegetables in basket -->
  <!-- Tomato -->
  <circle cx="24" cy="38" r="5" fill="#ef4444" opacity="0.8"/>
  <path d="M24 33L24 35" stroke="#22c55e" stroke-width="1.5" stroke-linecap="round"/>
  
  <!-- Lettuce/Leafy green -->
  <ellipse cx="38" cy="36" rx="6" ry="5" fill="#22c55e" opacity="0.7"/>
  <path d="M35 34C36 32 40 32 41 34" stroke="#16a34a" stroke-width="1" fill="none"/>
  
  <!-- Carrot -->
  <path d="M32 44L32 50" stroke="#f97316" stroke-width="3" stroke-linecap="round" opacity="0.8"/>
  <path d="M32 43L31 41L33 41Z" fill="#22c55e" opacity="0.6"/>
</svg>

